C:\GBW_MyPrograms\KinderuniversiteitApp\Resultaten\Ellis_test_v9\Volwassenen\Volwassenen_v1.mot
version=1
nRows=11
nColumns=29
inDegrees=yes
endheader
                time	         pelvis_tilt	           pelvis_tx	           pelvis_ty	       hip_flexion_l	       hip_flexion_r	        knee_angle_l	        knee_angle_r	       ankle_angle_l	       ankle_angle_r	    lumbar_extension	hamstrings_r/activation	bifemsh_r/activation	glut_max_r/activation	iliopsoas_r/activation	rect_fem_r/activation	  vasti_r/activation	gastroc_r/activation	 soleus_r/activation	tib_ant_r/activation	hamstrings_l/activation	bifemsh_l/activation	glut_max_l/activation	iliopsoas_l/activation	rect_fem_l/activation	  vasti_l/activation	gastroc_l/activation	 soleus_l/activation	tib_ant_l/activation	
          2.00000000	          0.24931560	          2.37024327	          1.07442704	         -3.26285847	         24.53659369	        -27.48738527	        -28.56169558	        -24.79457252	        -18.58001773	         -8.74685578	          0.05000000	          0.05000039	          0.05000001	          0.09101267	          0.13604383	          0.05000000	          0.05000000	          0.05000000	          0.38416323	          0.05000000	          0.05000000	          0.05000001	          0.05000002	          0.77877477	          0.17374773	          0.15778997	          0.19951661	          0.05000001	
          2.02000000	          0.15283864	          2.40120766	          1.07183907	         -5.53505872	         23.91169281	        -25.94976597	        -29.21818401	        -26.57817830	        -18.65432992	         -7.89164260	          0.05000000	          0.05000001	          0.05000000	          0.08056387	          0.10919590	          0.19414550	          0.05000004	          0.14583072	          0.28812242	          0.05000000	          0.05000000	          0.05000000	          0.05000003	          0.58408110	          0.13031080	          0.20846338	          0.15562292	          0.05000000	
          2.04000000	         -0.00409289	          2.43271088	          1.06973683	         -7.48976748	         22.87515732	        -24.68775604	        -30.39999967	        -29.11705078	        -17.42936465	         -6.90084180	          0.05534534	          0.06666667	          0.12288967	          0.06042290	          0.08189693	          0.29216651	          0.05000004	          0.26225062	          0.21609182	          0.05000000	          0.05000001	          0.05000005	          0.05000002	          0.43806083	          0.09773310	          0.17875385	          0.11671719	          0.05000000	
          2.06000000	         -0.23805922	          2.46346036	          1.06887470	         -9.07016569	         21.46867670	        -23.71802216	        -30.68827141	        -31.81781715	        -16.51833320	         -5.90267047	          0.08844720	          0.05000003	          0.18843655	          0.05000000	          0.06142270	          0.31606916	          0.06666662	          0.34587756	          0.16206886	          0.07872773	          0.50755504	          0.05000000	          0.05255598	          0.32854563	          0.07329982	          0.13406539	          0.08753789	          0.05000000	
          2.08000000	         -0.53858082	          2.49199056	          1.06938450	         -9.87698693	         20.21804767	        -23.64599395	        -30.78294736	        -32.51704770	        -16.23177520	         -5.07409830	          0.11008529	          0.05000001	          0.25581248	          0.05000000	          0.05000000	          0.32667896	          0.05000003	          0.36073081	          0.12155165	          0.08285456	          0.62191747	          0.05825435	          0.31312931	          0.24640923	          0.05497487	          0.10054905	          0.06565342	          0.05000010	
          2.10000000	         -0.88516049	          2.51794663	          1.07150208	         -9.54365100	         19.12550772	        -24.90195172	        -30.68053837	        -31.97352819	        -16.55892676	         -4.47669546	          0.11699267	          0.05000001	          0.25687623	          0.05000000	          0.05000002	          0.31658772	          0.05000001	          0.32775291	          0.09116374	          0.07641298	          0.47582030	          0.05000000	          0.37468874	          0.18480693	          0.05000000	          0.10265886	          0.05000004	          0.05000002	
          2.12000000	         -1.25325678	          2.54192498	          1.07502465	         -8.31454813	         17.99076612	        -26.93433890	        -30.19562243	        -30.89482542	        -17.22026333	         -4.06869158	          0.11591962	          0.05000001	          0.22828325	          0.05000000	          0.05000004	          0.27895527	          0.05000002	          0.28451483	          0.06837281	          0.07077725	          0.38763738	          0.05000000	          0.32933985	          0.13860521	          0.05000000	          0.07699415	          0.05000000	          0.05434315	
          2.14000000	         -1.62449282	          2.56459141	          1.07939244	         -6.59880614	         16.74746451	        -28.88244965	        -29.35701866	        -29.64321879	        -18.01072417	         -3.79550557	          0.11288612	          0.05000000	          0.20927766	          0.05000000	          0.05000006	          0.23345208	          0.05000003	          0.25086405	          0.05127961	          0.06260777	          0.40552408	          0.05000000	          0.26483594	          0.10395392	          0.05000000	          0.05774562	          0.05000000	          0.06906532	
          2.16000000	         -1.98695398	          2.58632335	          1.08400085	         -4.58497242	         15.43392114	        -30.45405752	        -28.30733771	        -28.33289697	        -18.85164093	         -3.62962516	          0.11194341	          0.05000000	          0.19880780	          0.05000000	          0.05000015	          0.19788765	          0.06060215	          0.22893606	          0.05000000	          0.05000003	          0.46436726	          0.05000000	          0.20934971	          0.07796547	          0.05000000	          0.05000000	          0.05000000	          0.10777401	
          2.18000000	         -2.33289585	          2.60729826	          1.08836968	         -2.30025204	         14.09625061	        -31.73202225	        -27.16047356	        -27.11130417	        -19.72885342	         -3.56209988	          0.09675866	          0.05000000	          0.19467018	          0.05000000	          0.09996979	          0.17546149	          0.08975800	          0.21442282	          0.05000000	          0.05000000	          0.51576824	          0.05000000	          0.17232601	          0.05847417	          0.05000000	          0.05000000	          0.05000000	          0.15228785	
          2.20000000	         -2.65709751	          2.62760584	          1.09220390	          0.28392977	         12.76114586	        -32.94928776	        -25.97685895	        -26.00597053	        -20.65081274	         -3.59136879	          0.08363778	          0.05000000	          0.18729662	          0.05000000	          0.18463043	          0.16183565	          0.11815039	          0.20423590	          0.05000000	          0.05000000	          0.53949493	          0.05000000	          0.14019931	          0.05000081	          0.05000000	          0.05000000	          0.05000000	          0.19163369	
